<?xml version="1.0" encoding="utf-8"?>
<svg xmlns:xlink="http://www.w3.org/1999/xlink" version="1.1" id="Warstwa_1"
     xmlns="http://www.w3.org/2000/svg" x="0px" y="0px"
     viewBox="0 0 640 153.0538635"
     style="enable-background:new 0 0 640 153.0538635;"
     xml:space="preserve">
<style type="text/css">
	.st0{fill:#fff;}
	.st1{fill:#A3ED00;}
</style>
    <g>
	<path class="st0" d="M180.3304443,69.9803238c3.0377808-6.2343521-1.7570496-14.5538788-4.699585-17.4911079
		c-2.9425201-2.9372292-11.2514648-7.7373657-17.4911041-4.6995811c-4.5566711,2.2174835-14.2416077,0.8944016-19.3540039-0.0688019
		c-28.3405914-5.3434525-55.646904,13.2994041-60.9903564,41.6399841
		c-1.2060776,6.3967972-1.2054977,12.9626923,0.0016861,19.3592834c0.957901,5.1070786,2.2862854,14.7920303,0.0688019,19.3487167
		c-3.0377884,6.2396393,1.7570496,14.5538635,4.6995773,17.4963989l0,0
		c2.937233,2.9372253,11.2514725,7.7320709,17.464653,4.6942749c4.5566788-2.2174835,14.2416153-0.8890991,19.3540115,0.0688019
		c28.3341522,5.3617096,55.6500549-13.2611542,61.0117645-41.5953217
		c1.2128296-6.4092331,1.2139587-12.9889832,0.0033569-19.3986359
		C179.4413452,84.2219543,178.1129608,74.5158386,180.3304443,69.9803238z M165.3108368,94.1238708
		c2.6262054,20.0815506-11.5241241,38.4898224-31.6056976,41.1160278c-3.156662,0.4128113-6.3536606,0.4128113-9.5103149,0
		c-3.9163284-0.5292358-11.4208374-2.1433868-18.9094467,0.2804871c-3.3870926,1.09552-7.5045013-1.3336639-9.4256134-3.254776
		c-1.9211197-1.9211121-4.3555679-6.0438156-3.244194-9.4256134c2.4238892-7.4939194,0.7938461-14.9984283,0.2805099-18.9147415
		c-2.62323-20.0819321,11.5298462-38.4881134,31.6117783-41.1113358c3.154686-0.4120865,6.3495941-0.4118767,9.5042419,0.0006142
		c3.9163208,0.529232,11.4208221,2.143383,18.9094391-0.2857895c3.3818054-1.0902176,7.5045013,1.3389549,9.4256134,3.260067
		c1.9211121,1.9211197,4.3555756,6.0438385,3.2600555,9.425621
		C163.1674652,82.7030563,164.7975006,90.2075653,165.3108368,94.1238708z"/>
        <path class="st0" d="M40.7508507,153.0538635C13.9717169,153.0538635,0,136.7535248,0,99.4426804
		s14.7655649-53.3994865,40.7508507-53.3994865c6.6153984,0,13.1778679,0.5821571,26.0382118,3.4929314l-3.2812424,15.9298477
		c-10.4787865-3.2812424-16.3003349-3.8633842-20.9575844-3.8633842c-17.6763401,0-24.0800476,9.8966408-24.0800476,37.6812935
		c0,30.2720718,7.9384766,38.2634506,23.8683586,38.2634506c5.0277023,0,9.3144836-0.7938385,23.1274338-6.1920166
		l3.2812424,15.9298706c-14.9772491,4.8159943-21.7514267,5.768631-27.996357,5.768631"/>
        <path class="st0" d="M256.7303467,151.0956879v-8.3618622h-1.3759918
		c-14.5538788,8.3618622-22.3335876,10.2670898-29.6898956,10.2670898c-20.1637115,0-35.934845-10.1083374-35.934845-52.2351913
		s19.7932739-54.7754898,41.3329926-54.7754898c5.6098328,0,14.3951111,1.1643143,24.8738861,4.8689384V2.5403144L273.1894531,0
		v151.0427551l-16.4591064,0.0529022V151.0956879z M255.9894104,64.3016739
		c-7.9384766-2.5403061-16.3003387-3.7046242-21.5397491-3.7046242c-13.760025,0-26.038208,6.1920204-26.038208,40.3803825
		c0,31.065918,8.9440308,36.8874664,21.7514191,36.8874664c5.8215485,0,11.4313812-1.1643219,25.8265076-8.5206299V64.3016739
		H255.9894104z"/>
        <path class="st0" d="M298.4867554,27.0437412c-6.7741699,0-11.0609741-3.8633862-11.0609741-10.6904888
		c0-6.6153984,4.2867737-10.4787922,11.0609741-10.4787922c6.1920166,0,10.9021606,3.4929333,10.9021606,10.4787922
		C309.388916,22.9686489,305.3138123,27.0437412,298.4867554,27.0437412 M289.754425,48.0013237h17.3058777v103.0943604H289.754425
		V48.0013237z"/>
        <polygon class="st1"
                 points="321.3495789,151.0956879 321.3495789,3.175391 350.6689758,0.0529264 350.6689758,151.0956879 	"/>
        <path class="st1" d="M379.0357971,35.7760658c-10.4788208,0-17.0942078-5.8215504-17.0942078-16.300333
		s6.615387-16.141571,17.0942078-16.141571c9.8966064,0,17.3058472,5.0277023,17.3058472,16.141571
		C396.2887573,29.5840626,390.0967102,35.7760658,379.0357971,35.7760658 M364.4819336,48.0013237h29.319458v103.0943604h-29.319458
		V48.0013237z"/>
        <path class="st1" d="M517.4829102,151.0956879V79.4376907c0-5.0277023-1.53479-6.8270874-6.7742004-6.8270874
		c-4.6572571,0-10.8492432,1.5347672-19.0523376,5.4510803v72.9810715h-29.1077576V79.4376907
		c0-5.0277023-1.7464905-6.8270874-6.4036865-6.8270874c-4.6572266,0-12.0135498,1.74646-19.4227905,5.4510803v72.9810715
		h-29.160675V48.0013237h29.160675v8.3618584h1.9581299c14.5538635-8.3618584,24.0800476-10.2670937,32.0185242-10.2670937
		c9.5261841,0,14.9772949,2.5403061,17.8880615,10.4787827h1.9581299
		c14.9772949-9.1027946,23.2861938-10.4787827,31.2775879-10.4787827c16.8825073,0,24.8739014,9.5261726,24.8739014,25.2443657
		v79.8081512L517.4829102,151.0956879z"/>
        <path class="st1" d="M601.7365723,153.0538635c-32.0184937,0-48.1600952-17.0941925-48.1600952-51.653038
		c0-38.2634697,17.4646606-55.3576508,45.619751-55.3576508C625.0227661,46.0431747,640,60.4382896,640,88.1700287
		c0,4.2867813-0.211731,10.6904907-0.9526367,18.046814c0,0-25.6148682,0.9526062-54.7225952,1.74646
		c0,15.1360321,4.4455566,19.2111053,17.4646606,19.2111053c3.8634033,0,10.6904297-0.5821609,31.2775879-6.6153946
		l5.02771,24.8738937c-17.1471558,5.5040283-28.7902222,7.6209564-36.3582153,7.6209564 M611.2626953,82.3484802
		c0-11.6430969-4.2868042-15.9298782-12.5957642-15.9298782c-9.5261841,0-13.7600098,4.4455414-13.9717407,23.2862015
		c0,0,15.9298706-0.2116928,26.4086914-0.5821609C611.2626953,86.2647934,611.2626953,84.306633,611.2626953,82.3484802"/>
</g>
</svg>
