<svg width="22" height="20" viewBox="0 0 22 20" fill="none" xmlns="http://www.w3.org/2000/svg">
<path d="M21.9983 18.8958C21.9983 19.5057 21.4553 20 20.7851 20H15.1786V12.255H18.0387L18.4672 9.23755H15.1786V7.30898C15.1786 6.4353 15.4463 5.8391 16.8246 5.8391H18.5825V3.13878C18.2786 3.10237 17.2354 3.01986 16.0205 3.01986C13.4863 3.01986 11.751 4.42746 11.751 7.01048V9.23593H8.88419V12.2534H11.751V19.9992H1.21408C0.543896 19.9992 0 19.5049 0 18.895V1.10423C0 0.494277 0.543896 0 1.21408 0H20.7859C21.4561 0 22 0.494277 22 1.10423V18.8958" fill="#29CC6A"/>
</svg>
