<svg width="22" height="20" viewBox="0 0 22 20" fill="none" xmlns="http://www.w3.org/2000/svg">
<path d="M11 0C4.9225 0 0 4.59118 0 10.2539C0 14.7853 3.1515 18.6279 7.52125 19.9823C8.07125 20.0788 8.27292 19.7618 8.27292 19.4892C8.27292 19.2457 8.26375 18.6006 8.25917 17.7461C5.19933 18.3647 4.554 16.3703 4.554 16.3703C4.0535 15.1869 3.33025 14.8707 3.33025 14.8707C2.33383 14.235 3.40725 14.2478 3.40725 14.2478C4.51183 14.3196 5.09208 15.3039 5.09208 15.3039C6.07292 16.8719 7.667 16.4191 8.29583 16.1567C8.39483 15.4936 8.67808 15.0416 8.9925 14.7853C6.54958 14.5289 3.982 13.6471 3.982 9.71813C3.982 8.59875 4.40825 7.68444 5.11408 6.96667C4.99033 6.70776 4.61908 5.66528 5.21033 4.2528C5.21033 4.2528 6.13158 3.97766 8.23533 5.30383C9.11533 5.07568 10.0503 4.96289 10.9853 4.95776C11.9203 4.96289 12.8553 5.07568 13.7353 5.30383C15.8253 3.97766 16.7466 4.2528 16.7466 4.2528C17.3378 5.66528 16.9666 6.70776 16.8566 6.96667C17.5578 7.68444 17.9841 8.59875 17.9841 9.71813C17.9841 13.6573 15.4128 14.5246 12.9653 14.7767C13.3503 15.0843 13.7078 15.7132 13.7078 16.6737C13.7078 18.046 13.6941 19.1483 13.6941 19.4816C13.6941 19.7507 13.8866 20.0711 14.4503 19.9686C18.8512 18.6236 22 14.7784 22 10.2539C22 4.59118 17.0748 0 11 0Z" fill="#29CC6A"/>
</svg>
