<svg width="22" height="20" viewBox="0 0 22 20" fill="none" xmlns="http://www.w3.org/2000/svg">
<path d="M17.875 0H4.125C1.84766 0 0 1.67969 0 3.75V16.25C0 18.3203 1.84766 20 4.125 20H17.875C20.1523 20 22 18.3203 22 16.25V3.75C22 1.67969 20.1523 0 17.875 0ZM6.80228 16.9772H3.38462L3.36478 7.67428H6.78245L6.80228 16.9772ZM5.00751 6.45733H4.98768C3.87049 6.45733 3.14994 5.75721 3.14994 4.88582C3.14994 3.99339 3.89363 3.31731 5.03065 3.31731C6.16767 3.31731 6.86508 3.99339 6.88822 4.88582C6.88822 5.75721 6.16436 6.45733 5.00751 6.45733ZM18.6517 16.9772H15.2043V11.9231C15.2043 10.7001 14.8474 9.86779 13.6442 9.86779C12.7254 9.86779 12.2296 10.4297 11.9916 10.9736C11.9023 11.1689 11.8792 11.4363 11.8792 11.7097V16.9772H8.41527L8.39543 7.67428H11.8594L11.8792 8.98738C12.3221 8.36539 13.0592 7.48498 14.8242 7.48498C17.0123 7.48498 18.6484 8.78305 18.6484 11.5745V16.9772H18.6517Z" fill="#29CC6A"/>
</svg>

