<svg width="22" height="20" viewBox="0 0 22 20" fill="none" xmlns="http://www.w3.org/2000/svg">
<path d="M6.65361 0.0321543L11.8042 12.6152H11.9669C12.7903 10.5466 13.4987 8.42444 14.2646 6.32369C15.0305 4.22294 15.7963 2.14362 16.5144 0.0428724H21.933C21.8629 0.172774 21.7862 0.298028 21.7032 0.418006C21.3011 0.921758 20.9086 1.48982 20.4778 1.92926C20.3223 2.10016 20.201 2.30602 20.1218 2.53326C20.0426 2.7605 20.0073 3.00397 20.0183 3.24759V17.1811C20.0129 17.3555 20.0429 17.529 20.1059 17.6887C20.1689 17.8483 20.2633 17.9899 20.3821 18.1029C20.8033 18.5209 21.2054 18.9603 21.6075 19.3998L22 19.8499H13.604C13.679 19.7253 13.7622 19.607 13.8529 19.4962C14.2454 19.0782 14.6379 18.6495 15.0496 18.2529C15.1894 18.1232 15.3003 17.9588 15.3734 17.7728C15.4465 17.5867 15.4799 17.3842 15.4708 17.1811V7.17042C15.4708 6.69882 15.4708 6.22722 15.5379 5.76635V4.99464H15.4134C15.3368 5.16613 15.2411 5.3269 15.1836 5.50911L10.1097 19.4427C10.0426 19.6356 9.95648 19.8178 9.87032 20H9.75544L3.57093 4.84459H3.4369V14.7696C3.4267 15.2601 3.57261 15.7388 3.84856 16.12C4.58573 17.1919 5.30374 18.2637 6.03133 19.3355C6.12707 19.4748 6.20366 19.6249 6.33769 19.8285H0C0.0957354 19.6463 0.16275 19.5177 0.239339 19.4105C0.995648 18.2851 1.76153 17.149 2.52742 16.0343C2.78259 15.6796 2.91815 15.2357 2.91036 14.7803V4.06216C2.92334 3.67403 2.81121 3.29361 2.59443 2.99035C1.98172 2.17578 1.43603 1.29689 0.804178 0.385852C0.737163 0.278671 0.679722 0.160772 0.583986 0L6.65361 0.0321543Z" fill="#29CC6A"/>
</svg>
