<svg width="22" height="20" viewBox="0 0 22 20" fill="none" xmlns="http://www.w3.org/2000/svg">
<path d="M21.3926 0.370192C20.5024 0.959893 19.5327 1.3732 18.5238 1.59289C18.0957 1.08597 17.5835 0.683668 17.0176 0.410003C16.4517 0.136337 15.8437 -0.00308659 15.2301 5.18289e-05C12.7393 5.18289e-05 10.7182 2.26085 10.7182 5.0488C10.7182 5.44463 10.7569 5.82904 10.8337 6.19823C7.08437 5.98794 3.75841 3.98024 1.53176 0.923023C1.1318 1.69019 0.920667 2.56848 0.921034 3.46357C0.921034 5.21436 1.71662 6.76058 2.92899 7.66547C2.21371 7.64129 1.51307 7.42599 0.882245 7.03652V7.09741C0.882245 9.54471 2.43876 11.5867 4.50531 12.0482C4.11751 12.1683 3.71759 12.2284 3.31605 12.227C3.02555 12.227 2.74164 12.1956 2.46599 12.1366C3.04123 14.1415 4.70668 15.6021 6.68245 15.6411C5.06996 17.0505 3.1005 17.8101 1.07702 17.8029C0.712233 17.8029 0.352403 17.7801 0 17.7344C2.07748 19.2203 4.47456 20.0051 6.91931 20C15.2218 20 19.761 12.3089 19.761 5.63588C19.761 5.41703 19.7568 5.19819 19.7494 4.98219C20.629 4.27327 21.3912 3.38832 22 2.36933C21.1912 2.76992 20.3213 3.04205 19.4086 3.16384C20.3438 2.54346 21.0496 1.54966 21.3926 0.370192Z" fill="#29CC6A"/>
</svg>
